<svg viewBox="0 0 138 121" xmlns="http://www.w3.org/2000/svg" fill-rule="evenodd" clip-rule="evenodd" stroke-linejoin="round" stroke-miterlimit="1.414"><path d="M97.48 120.65l-19.25-9.7-.98-.08.88-1.52.11-.97-1-2.04-.69-.88-.56-4.42-1.18-.75-1.82-.78-.93.36-1.53-.29-1.01.17-1.01 1.26-.98.09-1.82.64-1.46-.1-2.42-.76-.97-.76-1.12-.17-.68.09-.38.4-1.14.49-2.25-.2-3.1-.59-.76-.32-1.28-1.23-.79-.62-.27-.03-.82.18-.95.52-.95-.09-.37-.3h-1.33l-1.36.35-.2.24-.38 1.38.17 1.36-1.92.54-.42-.11-1.34-.78-2.28-2.67-.56-1.28-.25-.26-.62-.2-1.1-.98-.84-1.16-1.86-.99-1.67-1.27-.77-.28-.45.1-.67-.5-.18-.28.25-.76-.42-.65-.88-.22-.81-.5-.5-1.1-.29-1.65.26-1.31.01-.83-.14-.21-2.31-1.26-1.62-.11-1.28-.52-.15-.36-.68-.45-.62.21-.19.27-.35 1.55-.49.62-.92-.18-.37-.43.03-.26-.58-1.55-.94-.87-.05-1.88-1.51-2.54-.87-.6-1.25-.57-1.7.35-1.61-.42-.96.37-.61.84-.53.28-.19-.26-1.21-.74-1.78-.83-1.87-.14-.33-.09-.51-.5.05-63.7 1.29-.01 21.8.01h63.22l.83-.41 1.27-1.59 3.47-2.95 1.2-.33.28.05.17.36.95.28 3.34-.29 1.56-.6 1.47-.18.3.07.83.86.75.51 1.81.05 1.64-.34 2.74 1.25 2.77 2.39.13 1.88.44.98.24.11.53-.13.52-.55.98-2 1.87-.83.4.77.67.32 2.08-1 .35-2.01-.98-2.22 1.05-.83 1.22-.6 2.16-.71.44-.3.22-.56.62-.52.48.07.71.73 1.78.39 2.03-.21 1.79.12.83-1.1 1.45-.27 1.19-.46.81-.66.78.71.15.81-.35 2.67.2 1.4.5.68-.2 2.48-1.71 2.24-1.2 3.52.3.87-1.21 6.89-.53 2.02-2.02 5.68-.14 3.35.17.61.38.05.19.77-1.11 3.72-.21 1.47-1.14 3.77-.96 1.96-2.2 2.78-.5 1.3.32 1.69-.13 1.79-1.89 1.6-.81.94-1.67 1.04-.09.55.27.58-2.08.73-1.53.79-1.55 2.33-1.03 2.55-.24.2-.55.04-.51.41-.11.59.46.41-.35 1.39-1.24 1.66-.47 3.5-.26.94-.39.3-.63-.07-.85.34.6.16.44.41-.88 1.43-.98.73-.97 1.43-1.02 2.97.44.54-.54 2.46-.7.44-.22.76.38 1.11.76.79-.17.88-.29.25-.36-.39.13-.27-.15-.61-.29-.03-.69.43-.08.44.28.68-.61.68-1.16.64-.59 1.11-.06.56-.8 2.32-.55.89-2.1 4.6-.27 2.29-.02 2.9-.63.82-.58 3.22-.62 2.25-.69 1.74.05 1.97 1.08 1.25.14.94-.01.45-.32-.1-.46.34.02 1.58.36 1.54zm-9.53-22.32l.08-.4-.24-2.75.62-2.48.52-.73.82-.39 1.01.14.48-.43-.67-.43-1-.36-.57-.68-1.27-.72-2.85 2.1-.52 2.56-.02 1.85.29.79 1.45 2.15.26.22 1.09.37.52-.81z"/></svg>