<svg viewBox="0 0 98 172" xmlns="http://www.w3.org/2000/svg" fill-rule="evenodd" clip-rule="evenodd" stroke-linejoin="round" stroke-miterlimit="1.414">
  <path d="M20.59 17.84v-.36l.62-.79-1.5-1.01.34-.79.42-.21 1.53.05.1-.35-.11-.95-.3-.59.28-.41.97.05 1.08.7 1.42.07 1 .72.61.09 4.76-.32 1.42.45 1.75-1.2 1.49.03.61 1.16-.37.8.59-.6.08-.26-.22-1.29.21-.39 1.45-.52 1.14.42.72-.06-.42-.05-.77-.57-.12-.51.08-3.17.61-.96-1.64-1.22-.55-.78-.45-.28-.82-.15-1.55.26-1.34.72-.21-.02-1.05-1.05-.21-.72-1.14-.61-1.02.09-.07-.12 1.19-1.42 1.2-.55 1.15 1.13.82 1.94.42.04.33-.6-.47-1.46-.5-.9.38-.09 1.03.35.7-.37 1.77 1.48.11.48 1.72 2.2.59.13.5-.39 1.11-1.66.47.04.85.91 1.63 2.95.4.32.74.22.61-.41h.54l.55.8 1.54.65.74.02.53-.17 1.05-.57.4-.54 1.18.2.12.34-.75.43-.17.26.05.27.34.32.78.33.6-.28.32-.42.25-.04 1.47 1.12-.13.21.15.89.21.17 1.77-.26.56.23 1.03.09.9-.11.8-.61 1.07-.06 1.08 1.5 1.37.71.94.78 1.18.11.42.19-.06-.21.44-1.14.67-.67.56-.24.63.28 1.61-.19.83-.67-.25-.14-.62.37-.11-.27.23-.83 1-.27.74.02 1.38-1.1-.04-.77.4.01.37.43-.33.53-1.85 1.57.46.54-1.25 1.28-.05.35.21.52.51.48.55-.24.16-.45.89-.73 1.51-.44-.92 1.16.37.56.8-.37.19.33-.87 1.26.3.74.32.3.45-.29.82-.09.15.26.75-.07.58-.45.76-1.93-.29-.38-1.03.13-.66-.28-.05-.27 1.13-1.12 1.84-1.23 1.21-.22-.25.83.68 1.91.77 1.12.49-.01.42-.3-.03-.24-.71-.26.06-.21.88-.22 1.1.56 1.11 1.5-1.89 1.32-.64.74-1.1 1.77-.25 1.34-1.37-.51-.11.74.67 1.24-.01 1.07-.18 1.05-.76 1.14-.1-.35-.88.3.04-1.97-.17-.17-.34.08-.43 1.16-.93.81-.44.03-.15-.43-.53-.21-1.13.44-.72.59-.39.67.03.31.44.34-.29.65-.48.4-.2 1.25.47 1.39.42.23.6-.15.47-.53-.06.83-.34 1.16-.69 1.06-.3 2.01-.3.58-1.26.85-1.43 1.85-.88 1.52-.02.81-1.36.92-.44-.01.67 1.94.46.69.72.61 1.39.5 1.97 1.26 1.01.92 2.91 1.51.31.27.26 1.37.6.7 2.7 1.29 1.11.92 1.01 1.1 2.87.12 1.15.6 2.52 1.79 1.29.55.6-.02 1.12.37.99.49 1.32 2.1 1.54 1.31v109.55l-73.46.01-14.47-.01-9.71.07L0 69.51V42.62l.97.32 1.04.9-.12 2.04.18.22.71-.88-.41-2.71.12-.25 1.12.31 1.4.71 2.24 2.5.09.54.6-.23-.74-.97-.4-.83-.14-.83.24-.47.12-.75 1.67.29.69-.23.87-.84-1.94.61-.98-.63-.78-1.02-.18-.52.4-.2.86-.09.71-.5.04-.24-1.22.41-1.3-.24-.92-.53-1.05-1 .13-.89.65-1.24.67-.89 2.61-1.64.59-2.78-.06-.51.51-2.01.77-.8.1.7.38.22 1.05-.19 1.33-.9 1.09-1.15-.11-.41-.68-.93-.37-.31-.37-.08-.09-.24.1-1.96.18-.49.45-.2.15.28.32.15.41-.09.7-.5.28-.61-.1-1.47.11-.37 1.68-.75 1 1.14.96-.07-.92-.27-.31-1.17.29-.71.08-.88-.33-.25.53-.22 1.54.49 1.38 2.33zm.68-7.74l-1.06-.88-1.99-.82-2-1.57-.81-2.13-.58-2.15.08-.81.23-.18 1.51 1.32.45.73 1.43.45 1.52-.36.59-.55 1.14.49 1.27-.98.33-.03.22.75.56.8.05-.28-.37-.93.13-.55.72-.57 1.59.64 1.2 1.58.09.83-2.77 2.91-.35.05-1.34.86-1.84 1.38zm64.59 24.81l.17-.28.47-.03-.28 1.4-.57.22-1.5-.4-1.29.19-2.76-.69.38-1.91-.08-.82.25-.93.31-.53 1.47-.28.35-.27-.31-.7.91-.76.47.03-.08.51-.42.29.4 1.16 1.03.18.36-.38-.11-.38.2-.27.36-.1.32.23.08.41-1.07 1.1-.57.37-.67 1.49.02 1.03.31.27 1.45.22.4-.37zM16.21 8.99l-1.8-.69-2.51.64-.6-.12-.17-.27-.08-.29.6-1.09.5.3.41.02.4-.39-.03-1.53-.18-.47.89-1.55.96-.2 1.6 4 .77.2.81.73-.25.55-1.32.16zm65.25-4.21l.04-.51 1.47-2.13.93-1.88.49-.26-.53 2.04-1.77 2.48-.24.22-.39.04zM39.04 3.55l-.32-.34-.38-1.05-.32-1.83.83-.32.52 1.71-.02 1.08-.31.75zm48.4 49.79l-.62-.46-.68-1.01.2-.58.62-.61.49.61.41 1.33-.28.71-.14.01zm-9.26-21.98l.03-.4-.35-.61-.28.19.17.53h-.46l-.17-.21.1-.93.95-.75.46.08.48.65-.15.71-.36.58-.42.16zm-.2-24v-.51l.99-.79.82-.04 1.44-1.12-.1.55-1.09.83-2.06 1.08zm3.71 43.92l-.28-.14.22-.94.62-.42.31.14-.19 1.23-.68.13z"/>
</svg>
