<svg viewBox="0 0 169 220" xmlns="http://www.w3.org/2000/svg" fill-rule="evenodd" clip-rule="evenodd" stroke-linejoin="round" stroke-miterlimit="1.414">
  <path d="M130.02 140.15v.18l.67.64-.56-1.93-.71-1.46.01-.55.42-1.11.43-.56.48-.13.38.16.83 1.28.49 1.39 1.32.54 1.72 1.18 1.23.56-.63-1.49-.01-.88.3-.61.79.14.77 1.15-.32.74.08.57 1.47 2.09-.69 4.67.61 1.26-.13 1.68.72 1.46.88.48.81.12.31.71.74.56.52 1.5.77.42h.36l.51.36 1.15 1.42.74.22.58.46-.17.27.07.33.3.12.53-.52.02-.64.26-.25.48.14 1.13 1.3 1.58 1.41.83 2.47 1.32 2.16 1.58 1.21 1.53.6.54.62.32.77.11 1.43 1.78 2.95 1.49.45 1.07.07.42 1.76-.13 1.06-.44.45.06 1.4.24.67.36.34.33.09.58 1.42 1.56.71.04.29-.52 1.13-.71 2.9.2.78.27 3.57.3.73.15 4.27-.67.21-.66.93.33 1.66 1.19.92.88 1.1.68 2.33.92 1.29.32.87-.24 1.63.54 1.36.5.7-.81.66-1.19.46-1.45.27-.83 1.1-1.79-.12-2.03.21-1.78-.39-.71-.73-.48-.07-.62.52-.22.56-.44.3-2.16.71-1.22.6-1.05.83.98 2.22-.35 2.01-2.08 1-.67-.32-.4-.77-1.87.83-.98 2-.52.55-.53.13-.24-.11-.44-.98-.13-1.88-2.77-2.39-2.74-1.25-1.64.34-1.81-.05-.75-.51-.83-.86-.3-.07-1.47.18-1.56.6-3.34.29-.95-.28-.17-.36-.28-.05-1.2.33-3.47 2.95-1.27 1.59-.83.41H55.69l-21.8-.01-1.3.03-.02-36.54H0V71.22l2.11 1.72 1.04.4 2.13.51 1.66-.1.52.38 1.69.71 1.82.26 1.42 1.97.23 1.46.55 1.06.52.51.83.29 1.09.13 1.07.71.88.89 2.15.62.74.44 1.05.94.43.18 1.23.07 2.87-.52 1.49-.55.93-.5 1.5-1.16.82-.29.57-1.04.61-2.36.16-1.69 2.58-3.35 1-2.26.32-1.64 1.21-3.18-.28-1.89.65-4.14 1.89-4.33.34-1.37-1.07-2.94-.49-3.15.16-.92.62-1.59.08-1.24-.24-.87-1.09-1.3-.09-1.34.79-3.28 1.59-3.09-.12-.49-.5-.56-.49-1.92.09-.32.14-.25 1.11-.7.42-.51.53-1.47.65.2.35.6.01.89.46.7.09-.47-.61-1.78-.48-.35-1.32-1.98.32-.26-.21-.16-.71-.05-.09.65.34.46-.63.2-.38-.17.02-.25 1.02-2.21.95-1.31-.17-.38.49-1.4.47-.7.47-.21.27 1.32 1.16-.23.09-.27-.88-.86-.04-.45.24-1.28 1.67-4.8.39-2.45-.22-1.93.1-.27.4-.29 1.72-.3.61-.81.49-1.23.81-.03 1.02.48-.34.52-.72.66-.08 1.01.69-.88.39.03 1.47 1.25.47 1.03.84 3.42-.28 1.32.3 2.25-.08 1.29 1.18 1.04.75.06.71-.32.31.12.73.8-1.05 1.69-.22.93-.05 1.21.56.16.34-.09.96.47.3.33.04 1.16.48.5.41.04.74.56-.6 1.39-.14 1.17.47.24 1.07-.12.11.22-.17 2.43.25 2.28.08.4.43.41.28.6-.09 1.04-.61 2.56.77 2 .92.97.14 1.8.42 1.49.49 1.05.37.4.78.42 1.35.01 1.54-1.2 3.06-1.4.45-1.01.43.1.68 1.02-.13 1.06.52 1.41.68.81 1.64.63.74.05.68 1.51 2.68 1.21 1.19.93-.07.66-.82 1.45.04.66.43.71.14.83-.44 1.29.61 1.21.59 2.01v2.03l.55.55.57 1.33-.18 2.3-.41.57-.07 1.16.1.33.57.36 3.71 4.63.36-.3 1.01-.17.26.32-.84 1.59.05.35.77 1.32.85 1.99.58 2.13.2 1.57-.2 1.08.16 1.16-.07.75-1 2.12.08 1.09 2.2 2.88 1.32.5-.08 1.27-.49 1.14-.14 1.21.1.38.63.84.95.74.27.52 1.27.83.97.46 1.19.03 1.33 1.33.74.03 1.29.42.73.69 1.24.26 1.94-.15.16-.34-.49-.85.62.71 1.05 1.89.43 2.2.26.53.55.59.59.14.5-.12-.17-.93.08-.4.66.01.32.34.13 1.27.52.49.65.28 1.36-.06 1.34.39.86 1.04-.35.14.09.31.64.79.86.7.57-.25.04-.68-.34-.31.15-.4.75.28 1.64 1.47 1.04.19.37.51.69 1.94.41.11.33.92-.61-.15-.52-.53-.44-.21-.53.22-.8.99.67 1.8 1.31 1.37.78.54 1.16.41 1.44 1.12.59.75-.11.86.38 1.44.54.46.42 1.38.62 1.09.62.59-.14 2.21.99 3.54.75 1.82.69.99.47.38.03 1.19-.33.5.73-.37.58-.48.27-.45 1.7 2.11zm33.7 38.18l-.47-.1-.44-.59-.59-2.15.58-1.42.73-1.21-.01-1.03-.15-.26.45-.94 1.13-.91.5-.98.09-.53-.11-.41-.65-1.06-.21-.12.41-.76.93-.61.09 2.44.25.55.52.34.11.42-2.65 6.24-.48 1.57.16.97-.19.55zM12.46 73.54l-.11-.66.29-1.15.62-.86.91-.69 1.88-.23.59-.32 2.09.34.06.66-.47.22-.71.15-.47-.38-1 .4.16.35-.67 1.11-1.21.46-1.57.29-.39.31zm131.13 80.89l-.59-.55-.42-.93-.73-.66-.42-.94-.1-.82.48-.11 1.52.96.21.35.7 1.34.13.92-.29.35-.49.09zm-53.6-61.27l-.75-.29-.21-1.04-.48-.65-.5-.24-.27-.5.45-.11 1.54.72.9 1.3-.32.62-.36.19zm77.26 108.57l-.19-.42.06-1.04.42-2.38.42-.1.75.13-.72 2.38-.23 1.37-.51.06zm.2-4.48l-.72-2.02v-1.64l.93-.51.24.18-.56 2.12.11 1.87zM45.41 6.97l-.68-.55-.05-.69.65-.43.45-.09.53.8-.07.41-.52.13-.31.42zm1.05-5.54l-.75-.32-.23-.36.42-.64.6-.11.36.17.25.44-.65.82zM15.5 77.88l-.31-.65 1.11-1.04.56.4.18.83-1.28-.03-.26.49z"/>
</svg>