<svg viewBox="0 0 131 155" xmlns="http://www.w3.org/2000/svg" fill-rule="evenodd" clip-rule="evenodd" stroke-linejoin="round" stroke-miterlimit="1.414"><path d="M79.31 102.53l-1.08 1.74-.88.39-.93 1.59-1.12.7-.67 1.33-.77 2.33.27.13.48-.06 1.45-1.02.15.69-.17 2.59-.52.22-.29-.55-.91-1.01-.65-.4-.68.1-.48 1.13-.39-.01-.41-.79-1.43-1.87-1.61-1.66-.85-.68-.35-.11-1.12.39.43-1.19.62-.89.05.82 1.42 1.52.57.39 1.08-.35-1.1-.44-.14-.41-.06-.34.18-.4-.48-2.7-.83-2.21-.13-1.48-.73-1.13-1.74-1.96-2.09-1.7.3-1.25-.11-.9-.54-1.54-1.1-2.27-1.24-.48-2.01.32-.86.49-.66-.74.01-.33-.8-2.13-1.32-3 .87.06.43.4.15.65.74-1.01.22-.66-.22-1.14-.77-1.09-.68-.59-.31-.05-1.72.54-.7.67-.41-.08.02-1.04.31-.71.55.22.18-.3-1.35-1.88-1.09-.64-.68-.61.12-.47-.74-.23-.27.22-.16.65-.89.56-3.46-.24-.33-.08-.76-.82-1-.36-1.53-1.45-.52-.28-2.18-.26-1.04.21-.81.75-.94.33-.68.05-.75-.19-1.83-1.85-2.8-2.03-4.39-2.27-2.35-.88-.36.04-1.11.9-1.83.71-.55.07-5.76-.43-1.24.04-2.31.18-1.06.27-6.58.56-2.5.41L.06.07 9.77 0l14.47.01L97.7 0h32.57l.03 36.55-.05 63.7-.28-.37-.04 54.4-1.27-.13-.86.26-.79-.03-1.83-.98-1.89-1.9-1.28-2.59-1.27-1.93-.78-.55-.61.03-1.95-2.62-.68-1.36.34-.7-.03-.55-.51-1.27.2-1.25.77-.64.42-1.08-.01-1.81-.4-1.43-1.9-4.63-3-4-1.98-2.13-1.16-.94.53.17 2.96 2.59 1.96 2.69.83 1.71-.12-.93-.5-1.41-.41-.61-1.29-1.49-3.78-3.62-.02-1.18.67-.27.82.71-.1 1.67.17.23 1.02-.11.28-1.16.13-1.77-.18-1.27-1.56-.77-.84.83-.6.18-.64-.03-.55.24-.22.54.11.35.62.2.21.26-.49.63-2.93-.25-.77.32-.65.79-.59.41-3.92.21-.89-.67.65-1.15 1.44-.72 1.66-1.79.31-1.75-.13-.46.11-.84.53-1.16-.36-2.14.25-1.18-.09-.58-.66-1.14-1.74-2.13-.6-2.16-1.38-2.35-.26.06-.66 1.54.29.58-.16.55-1.03 1.06-.38 1.31-.15 2.44-1.37 4.46-.01 1.1-.8.65-1.54-.7-.79-.2-.42.08-2.04.77-.46.75-.26.17-1.51-.23-.84.74-.62.23-.35-.17-.31-.52.4-.65.74-.73.26-.63.18-1.86.51-.75.91.36.93-.25.96-.06.19.3.93.42.54-.29.22-.55.48-3.14-.19-2.45.13-2.43-.45-1.65.16-.22h.53l.32-.62.55-1.82.09-.94 1.9-2.43 1.22-1.2.46-.13.18-.47-.35-1.53-1.1-2.11.33-.98.62-.44.58-.23.7-.02.3-.24-.08-.66-.33-.63-.59-.25-.63-2.86-.57-1.27-.3-1.55-.58-.44-.09 2.09.25.14.25.44.07 1.37-.36 1.86-.57.03-1.38.44-1.16 1.26-1.12 2.23-.06 1.07-.2.6-1.64 3.07-.74.62-1.32.05-.77-.47-.71 1.06.2.14-.42.44-3.08 1.63-1.81 1.42-.62.64-.06.42-.54 1.02zm17.43 20.18l1.65.45.53.72.01.7-.79.71-1.29-.63-1.74-.13-1.53.72-.2.28.14.92-.31.31-1.42.7-1.06-1.08-1.43-.27-.4.13-.12.49-.31.18-1.29-.12-1.43.22-2.04.06-.35-.58-1.54-1.28-.05-.47.51-1.5 3.98-1.18.85-.01 1.02-.24 2.14-.95 2.27.19.64.61-.01 1.08.15.2 1.04.14 1.07.61.64.05.67-1.03z"/></svg>