<svg viewBox="0 0 51 60" xmlns="http://www.w3.org/2000/svg" fill-rule="evenodd" clip-rule="evenodd" stroke-linejoin="round" stroke-miterlimit="1.414">
  <path d="M33.45 58.52l-.9.45-.2-.45-1.4-.22-.94-.71-.92-.2-2.37-.12-.23-.16-.16-.43-.31-.09-1.31.4-.78-.26-1.15-1.81.64-.45 1.2.18.59.32.82.17.02-.98-.77-.64-.42.76-2.89-.37-.24-.17-1.19-2.43-1.43-2.28-.23-.23-.68.03-.56-.9-.4-.85-.75-2.77-.47-.51-.55-.16-.68-4.38.08-.83.2-.26.29.52 1.91 1.46.47 2.18.9-2.52-.57-.4-.45.04-1.93-2.12-.21-.6.02-.88-.16-.66-.69-1.41-1.41-1.33-1.09-1.93-2.92-7.17.1-.51-.3-1.52-.33-.62-.2-1.44.88-.8.02-1.66.66-.44 2.43.29 1.42 1.05 1.72-.28.66.56 2.21.72 3.62 2.15 3.48 1.64 2.3.21 1.02-.31.94.53-.05-.5.85-.9.77-.27.57.18.24.95.57.29.91-.02-.32-.46-.76-.17-.22-.21-.05-.69.49-.45 1.66-.75 1.41.47 2.27-.46.66.59.78-.47 1.09-1.89.24-.15.69-.17.26.38 1.13.51.38-.02.69-.4.35-.59.19-.87.22-.24.46.02.71.33 1.54 1.14.57.75.6 1.35-.69 2.46.08.74.45.59.04 1.09-.47 1.72.07 1.23.37 1.07-.54 2.92.36 3.2.66 1.07.06 1.66-.57.81-.39-.33-.05-.35.29-.37.13-.96-.77-2.07-.47-.77-1.26 2.5-.82 5.93-.49.5-.16.84.12 1.52-.78.81-.44 1.48.15.24.47-.03-.2-.43.32-.24.69.42.28.55.06 1.03-.41.27-.17 1.29.58 1.31-.1.84-.27.02-.77-.68-.78.34-.41.61-1-1.24-.71-1.45-.14-.71.6-1.07.35-.1.26.24.05.36-.17.35.67.72.93-.07.34-.29-.8-1.4-2.54-1.55-.37.06-.6.45.21 1.01.34.74-.29.58-1.07.35-.25-.62.21-.13-.16-1.5-.98-.63.34.86-.24 1.54-.63.77-.29 1.08.22 1.04-.16.97-.37.24-.38-.05-.87-.56-.79-.93-.15-.94-.23-.09-.23.37-.01 1 1.37 1.25-.44 1.1-.57.89-.54 1.57-.16 1.08-.23.2zM46.61 9.88l-.98-.54-.28-1.06.06-.3-1.24-2.33-1.55-1.38 1.32-1.74.93-.4L47.02 5l.4.29.83.22.09.41.51 2.79-.04.38-.3.28-1.37.25-.53.26zM.94 7.93l-.38-.28-.14-.73.2-.15v-.98L0 4.98l.03-.77.19-2.27.85-.63.13-.37-.11-.81.46-.13.97.59.45.65.15 2.29L3.38 5l-.1.77-.33.74L.94 7.93zm47.95 5.2l-.03-.69-.19-.28-2.52.32-.97-.42.02-.55.72-.59.74-.04.76.23 1.52-.77 1.48 1.76-.02.15-.75.29-.76.59zM37.64 56.96l-.69-.32-.69.15-.57-1.19 1.92-2.37.7 1.83-.48 1.74-.19.16zm125.68 187.07l-.48-.05-.01-1.54.62-2.78.21-.5.54-.32-.16 1.87-.62 2.08-.1 1.24zM38.28 53.23l-.75-1.57.7-1.22.43.66.39 1.81-.03.17-.74.15zm7.09-7.54l.05-1.96.63-.48.56.05.49.96-.05.15-.76.01-.92 1.27zM11.44 16.35l-.19-.14-.05-.69.65-.77.98 1.12-1.39.48z" fill-rule="nonzero"/>
</svg>