<svg viewBox="0 0 98 70" xmlns="http://www.w3.org/2000/svg" fill-rule="evenodd" clip-rule="evenodd" stroke-linejoin="round" stroke-miterlimit="1.414">
  <path d="M93.51 49.87l-1.32.65-1.6.16-5.25.03-1.82.26-1.79-.07-2.01.14-3.75 1.11-2.22 1.1-2.37 1.8-1.83 1.71-1.73 1.72-2.64 3.07-1.04.92-2.43.31-2.38.6-.85-.27-.99.06-.45.19-.38.57 1.21 2.21 1.25-.88.23-.84.39.18.16 3.76-.64.81-.34.17-.51-.24-.3-.45-.79-2.07-1.14-1.43-.84-.36-.53.17-.15.43-1.07-.09-.88-1.78.26-.42-.34-.64-.96-.15-.75.5-.55.09-.45-.26-1.63-1.65.18-1.29.96-.4.38-.67-.76-1.74-.45-.29-2.05.15-.46 1.54-1.98 2.04-.96.19-.44-.07-1.52-1.77h1.29l1.14-.51 1.59-2.8-.35-1.29-1.34-2.07-.63-.32-1.01.46-1.45 1.39-1.78 1.33-1.53.16-.19.19.06.5 1.5.26.84-.29.5-.37.75.21.16.4-.12.61-.56.86-.27.2-.93-.22-1.67.36-.35.21-3.27 2.21-2.38 2.93-1.2.33-.4.28-.24.61-1.41 1.04-.41-.11-.67-.79-.61-.36-2.25-.72-.51-.52-.92-.57-.83-.11-1.83-.74L17 59.18l-1.69-.67-1.2.29-.2.23-.98-.02-1.06-.61-1.06-.88-1.56-.34-.76-.01-.78.22-.64.54v.43l.33.65-.86.24-1.27-.62-.94-1.14-1.89-1.77-.97-.64L0 54.4.04 0l.28.37.51.5.33.09 1.87.14 1.78.83 1.21.74.19.26.53-.28.61-.84.96-.37 1.61.42 1.7-.35 1.25.57.87.6 1.51 2.54.05 1.88.94.87.58 1.55-.03.26.37.43.92.18.49-.62.35-1.55.19-.27.62-.21.68.45.15.36 1.28.52 1.62.11 2.31 1.26.14.21-.01.83-.26 1.31.29 1.65.5 1.1.81.5.88.22.42.65-.25.76.18.28.67.5.45-.1.77.28 1.67 1.27 1.86.99.84 1.16 1.1.98.62.2.25.26.56 1.28 2.28 2.67 1.34.78.42.11 1.92-.54-.17-1.36.38-1.38.2-.24 1.36-.35h1.33l.37.3.95.09.95-.52.82-.18.27.03.79.62 1.28 1.23.76.32 3.1.59 2.25.2 1.14-.49.38-.4.68-.09 1.12.17.97.76 2.42.76 1.46.1 1.82-.64.98-.09 1.01-1.26 1.01-.17 1.53.29.93-.36 1.82.78 1.18.75.56 4.42.69.88 1 2.04-.11.97-.88 1.52.98.08 19.25 9.7-.85.54-1.24.11-1.22 1.86-.98.5zm-45.84 9.55l-.78-.3-.14-.63.27-.89 1.74.36.44.52-.12.2-.7.01-.71.73zm-.02 1.92l-.37-.45-.53-.23-1.68.14.03-.15.76-.74 1.01-.2.29.19.58 1.39-.09.05z"/>
</svg>