<svg viewBox="0 0 175 257" xmlns="http://www.w3.org/2000/svg" fill-rule="evenodd" clip-rule="evenodd" stroke-linejoin="round" stroke-miterlimit="1.414"><path d="M14.47 141.23l.19-.37.01-1.47-2.43-2.57-1.29-2.42-1.18-2.99-1.15-.7-.98-2.78-.09-.53.12-1.08-.67-1.11-1.37-1.6-.39-1.14-.06-2.35.44-1.14.24-1.46.93-3 .75-1.5 1.54-1.21.27-1.01.15-1.35-.24-1.56.63-1.92-.12-1.14-.59-1.63-.89-1.26-.16-.95 1.56-3.16 1.45-4.17 1.05-1.56.64-.36.8-.14.14.28-.54 1.02-.53 3.07.7 1.48-.34 2.16.47.48 2.37-1 .3-1.25.66-1.69 1.79-3.11.28-.96 3.17-1.76 1.19-.09 2.09-1.04 2.24-.86 1.82-2.15.66-.51 1.37-.59 1.29-1.94 2.55-1.19.28-.74.69-.38.66-.08 1.8-.64 1.42-.88 1.1-.93.88.19.47.47.48.13 2.07-1.11 1.07.37.35.4.76.34.81.15.69-.01 3.03-.62 1.79-.78 2.38-2.29 1.19-.71.15.29.46.01 3.37-.56 1.22.07 1.56-.52 1.62-1.94.32-.87 1.09-.83 1.18-.11 2.66.66 1.6.62 2.21-1.14 4.93-.72 1.06-.35 5.88-2.45 1.62-.84 2.71-2.26 2.3-3.11 1.64-3.53 1.5-2.02-.13-.92.39-.86.26-.25.71.17.54-.29.8-.64.58-.85.67-.33 2.27-1.79.33-.8-.06-.62-.32-.3-.86-.24-.49-.73-.12-2.14-.64-1.66.03-2.21.34-1.35.89-1.53 1.33-1.26.74-.47 1.38-.01-.55-1.23.46-.62.3-.12.24.23h.26l1.22-.42.11-.32-.28-.41.26-1.09.31-.35.57-.12.57-.63.06-.62.23-.37.77-.28.74.74-.23.29-.54-.06-.36 1.25.69.94.83.52.22.86 2.08 3.89 2.67 4.27.24.93.2-.99-.37-.72.04-.89.6-1.82-.49-1.5.2-.86.69-.02 1.38 1.67.8.72.39.17.27-.15-.42-.2-.5-.62-.39-1.56 1.03-1.18-.36-.19-.83.25-.17-.12-.53-1.13-1.19-1.29.06-1.23-1.22.02-.83-.75.74-.03 1.6.36.74-1.12.09-.58-.11-.44-1.21-.24-.39-.35-.03-.99.15-.32 1.69-.37.87.68-.24.53-.56.15 1.16 1.22.57.12.02-.44.78-1.06 1.32.19.58.26.29.19.39.93.3.21 1.12.06.56-.64.99.48 1.12.11 1.63-.23 1.16.51.62-.26-.84-.08-1.28-.6-.89-.21-.57-.04-.89.26h-.67l-.19-.2-.27-1.21.59-1.34.44-.1.52.79.81-.56-.08-1.03.32-1.17 1.22-1.23-.61-.25-.59.17-.88 1.5-.51.01-.95-.82-.31-2.2.93-2.13.34-.15 1.01.58.81-.42.19-.28-.12-2.15.46-.11 2.25 1.15.88.85 2.04.99-1.14-1.01-.06-.25.52-.95-.23-.24-.93-.01-1.08.4-.12-.64.4-.56.42-.2.31.2.43-.74-.34-.09-1.42.94-.3-.01-.32-.85.35-.45.47-.22.64.19.23-.07.57-.4-.16-.38.65-.46.75 1.69.19.12.11-.48-.14-.96 1.28.75.03.4.43.21 1.01-.05.22-.21-.19-.16-.33.03-.29-.26.32-.31-1.18-.84-1.07-.53.36-.42.29-.1-1.16-1.72 1.17-1.67 1.01-.84.57.24 2.18.05.11-1.36-.21-1.31.14-.75.28-.21 1.2.57-.94 3.98.2-.21.67-2.31 1.31.67-.2 1.2.21.39.64.4.96-1.07.51-.36.31-1.91.83-1.69.04-.7-.71-1.82-.69-.44.54-.12.87.13.75.38-.09.84-.56.24.37 1.22.46.13.58.59.28-.44-.2-.59.43-1 1.06-.84.77-.11-.51 1.25 1.23 1.59.35.1 1.12-1.18.93-1.69-.47-1.96 1.22-.49 1.06-.25.67.54.62.8-.19.42.77.95.27-.43.01-.36.95-.04 1.99.64 1.04 1.47 1.49 1 3.25 4.52.47-.23 1.84 1.58.2 1.09-.52.75-.77 2.6.11 1.18-.07 2.13-.57 1.14.52-.3.3-.42.38-2.46.54.22.82.81.32 1.06.05-1.08-.73-1.27-.35-1.4 1.24-1.7.22.04.29 1.43 1.03.03.11-.51-.43-.78-.34-1.47 1.61-.46 5.04 1.26v26.89l.06 101.59-.13 70.22-2.25.98-2.59 1.51-4.03 1.83-1.85.74-2.98.58-4.37 1.69-2.28.4-4.75.22-3.12-.3-2.39-.69-1.2.59-1.05-.23-1.8.98-3.16 2.6-.77.34-1.54.33-3.33 1.84-1.26 1.13-1.44.87-3.73.61-1.31.52-1 .82-.91 1.16-1.13 3.28-.51 2.15-1.04.73-.98 1.03-.37.74-.01.35-.48.53-1.63 1.11-1.87-.14-.28.11-.65.88-.5.38-.74.24-.73-1.72-.9-.38-1.88.64-1.25-.18-1.48.06-.2.2-1.55.16-.86-.17-.61.24-.39.45-.12.66-1.44.15-.42-.14.23-.49-.32-1.13-.63-.81-.22-.08-.84.15-.6.57-.88.25-2.8-1.01-.67-.05-1.36-.03-3.09.54h-2.05l-.77.41-2.73.38-1.34.74-1.78-.45-2.69-.14-2.08.64-.8.88-1.33.71-.57.65-.9 1.58-.15.8-1.54 1.51-1.27.75-1.41-.5-1.82-.17-1.87 1.27-.22.33.38.42-.38.43-.88.54-1.75.57-.64.66-.33.87-1.15.86-2.17 1.16-2.65.48-.04.27.26.28 1.5.33-.67.38-.82-.15-.81-.64-.62-.23-.68.04-.34.24-.25.91-.83-.66-2.18-.92-4.15-.02-.57.53-.25.01-1.61-.52-1.33.21-1.54-.44-2.64-1.76-2.64-.61-.65-1.53-1.08-1.25-1.8-1.84-1.65-1.1-1.97-1.03-.79-.09-.79.19-.5.65-1.23-1.31.01-1.13-.57-4.04-.04-2.26.47-2.18.46.13.67 1 1.29.55 1.03-.09.88-.32.36-.21 3.07-4.42-.47-3.64-.81-4 .25-.87.83-1.03-.04.41-.62.69-.02.52.44 1.25.3.45.2-.14-.02-.7.5-1.84-.32-3.22.25-1.65-.19-1.23.06-2.57-.41-2.25-.26-.71-2.65-4.83-.75-2.24-.63-1.46-1.55-2.7-1.31-3.35.08-.34-.34-2.54-.72-2.48-.22-.19.05-4.85.39-2.27-.54-1.89-.28-.45-.17-1.16-.57-1.35-2.34-2.78-.3-.91-.08-2.02-.88-1.78-2.12-3.17-.82-.5-.84-1.2-.65-2.93.14-.91.36-.85-.21-1.27-.53-1.85-1.48-3.07-1.5-2.81-2.32-3.35-3.31-3.52-.61-1.93.5-1-.07-1.11.04-.29.21-.15.18 2.34.33.68.34-1.92 1.61 1.99.22.65.13 2.05.25.74.8 1.02.34.07.03-.31.7-.48.46.11.78-1.16.06-2.06-.78-1.04-1.49-.98-1.1-1.14-.63-2.6-1.1-1.78.19-.99.66-1.05.31.23 1.01 1.82 1.15.99.4 1.13-.26 1.42-.3.33.03 1.02.32.93.55.05.37-.4.87-1.68.57 2.82.3.77 1.2 1.61 1.36-1.07.29-.97-.33-.47-.21-.85.37-2.33.38.18zm-11.23 1.73l-.32-.26-1.61-2.44-.81-1.63-.5-1.88.07-1.05.43-.62.54.13-.22.53.04.33 1.28 3.66 1.1 2 .22.79-.22.44zM126.09 19.2l-.09-.31-.58-.54.09-.5.27-.43.71-.29.94 1.57-1.34.5zM26.72 80.96l-.37-.31-.27.26-.08-.09.01-.61 1.11-1.5.36-.22.13.07.15.79-.05.35-.63.98-.36.28zM132.78 10.3l-.57-.31.07-.85.25-.64.51-.53.5.56-.25 1.22-.39.19-.12.36z"/></svg>